# xmcd
#
# Track frame offsets:
#	150
#	25304
#	43276
#	63031
#	79898
#	104126
#	118103
#	135099
#	153106
#	172843
#	191062
#	208989
#
# Disc length: 3030 seconds
#
# Revision: 0
# Processed by: cddbd v1.4PL0 Copyright (c) Steve Scherf et al.
# Submitted via: dBpowerAMP V4.0
#
DISCID=a20bd40c
DTITLE=Toby Keith - Shock'n Y'all
DYEAR=2003
DGENRE=Country
TTITLE0=I Love This Bar
TTITLE1=Whiskey Girl
TTITLE2=American Soldier
TTITLE3=If I Was Jesus
TTITLE4=Time For Me To Ride
TTITLE5=Sweet
TTITLE6=Don't Leave I Think I Love You
TTITLE7=Nights I Can't Remember Friends I'll Never Forget
TTITLE8=Baddest Boots
TTITLE9=The Critic
TTITLE10=The Taliban Song
TTITLE11=Weed With Willie
EXTD=
EXTT0=
EXTT1=
EXTT2=
EXTT3=
EXTT4=
EXTT5=
EXTT6=
EXTT7=
EXTT8=
EXTT9=
EXTT10=
EXTT11=
PLAYORDER=
